HIERARCHY
ROOT hip
{
  OFFSET 0 0 0
  CHANNELS 6 Xposition Yposition Zposition Zrotation Yrotation Xrotation
  JOINT abdomen
  {
    OFFSET 0 20.6881 -0.73152
    CHANNELS 3 Zrotation Xrotation Yrotation
    JOINT chest
    {
      OFFSET 0 11.7043 -0.48768
      CHANNELS 3 Zrotation Xrotation Yrotation
      JOINT neck
      {
        OFFSET 0 22.1894 -2.19456
        CHANNELS 3 Zrotation Xrotation Yrotation
        JOINT head
        {
          OFFSET -0.24384 7.07133 1.2192
          CHANNELS 3 Zrotation Xrotation Yrotation
          JOINT leftEye
          {
            OFFSET 4.14528 8.04674 8.04672
            CHANNELS 3 Zrotation Xrotation Yrotation
            End Site
            {
              OFFSET 1 0 0
            }
          }
          JOINT rightEye
          {
            OFFSET -3.6576 8.04674 8.04672
            CHANNELS 3 Zrotation Xrotation Yrotation
            End Site
            {
              OFFSET 1 0 0
            }
          }
        }
      }
      JOINT rCollar
      {
        OFFSET -2.68224 19.2634 -4.8768
        CHANNELS 3 Zrotation Xrotation Yrotation
        JOINT rShldr
        {
          OFFSET -8.77824 -1.95073 1.46304
          CHANNELS 3 Zrotation Xrotation Yrotation
          JOINT rForeArm
          {
            OFFSET -28.1742 -1.7115 0.48768
            CHANNELS 3 Zrotation Xrotation Yrotation
            JOINT rHand
            {
              OFFSET -22.5879 0.773209 7.07136
              CHANNELS 3 Zrotation Xrotation Yrotation
              JOINT rThumb1
              {
                OFFSET -1.2192 -0.487915 3.41376
                CHANNELS 3 Zrotation Xrotation Yrotation
                JOINT rThumb2
                {
                  OFFSET -3.37035 -0.52449 3.41376
                  CHANNELS 3 Zrotation Xrotation Yrotation
                  End Site
                  {
                    OFFSET -1.78271 -1.18214 1.43049
                  }
                }
              }
              JOINT rIndex1
              {
                OFFSET -7.75947 0.938293 5.60832
                CHANNELS 3 Zrotation Xrotation Yrotation
                JOINT rIndex2
                {
                  OFFSET -2.54057 -0.884171 1.56538
                  CHANNELS 3 Zrotation Xrotation Yrotation
                  End Site
                  {
                    OFFSET -1.62519 -0.234802 1.16502
                  }
                }
              }
              JOINT rMid1
              {
                OFFSET -8.24714 1.18213 3.41376
                CHANNELS 3 Zrotation Xrotation Yrotation
                JOINT rMid2
                {
                  OFFSET -3.10165 -0.590103 1.0647
                  CHANNELS 3 Zrotation Xrotation Yrotation
                  End Site
                  {
                    OFFSET -2.48547 -0.328903 0.83742
                  }
                }
              }
              JOINT rRing1
              {
                OFFSET -8.82822 0.546677 1.51678
                CHANNELS 3 Zrotation Xrotation Yrotation
                JOINT rRing2
                {
                  OFFSET -2.60934 -0.819778 -0.0198488
                  CHANNELS 3 Zrotation Xrotation Yrotation
                  End Site
                  {
                    OFFSET -2.33842 -0.294052 0.168128
                  }
                }
              }
              JOINT rPinky1
              {
                OFFSET -8.27202 -0.0477905 -0.4584
                CHANNELS 3 Zrotation Xrotation Yrotation
                JOINT rPinky2
                {
                  OFFSET -1.82734 -0.647385 -0.700984
                  CHANNELS 3 Zrotation Xrotation Yrotation
                  End Site
                  {
                    OFFSET -1.69225 -0.51767 -0.607171
                  }
                }
              }
            }
          }
        }
      }
      JOINT lCollar
      {
        OFFSET 2.68224 19.2634 -4.8768
        CHANNELS 3 Zrotation Xrotation Yrotation
        JOINT lShldr
        {
          OFFSET 8.77824 -1.95073 1.46304
          CHANNELS 3 Zrotation Xrotation Yrotation
          JOINT lForeArm
          {
            OFFSET 28.1742 -1.7115 0.48768
            CHANNELS 3 Zrotation Xrotation Yrotation
            JOINT lHand
            {
              OFFSET 22.5879 0.773209 7.07136
              CHANNELS 3 Zrotation Xrotation Yrotation
              JOINT lThumb1
              {
                OFFSET 1.2192 -0.487915 3.41376
                CHANNELS 3 Zrotation Xrotation Yrotation
                JOINT lThumb2
                {
                  OFFSET 3.37035 -0.52449 3.41376
                  CHANNELS 3 Zrotation Xrotation Yrotation
                  End Site
                  {
                    OFFSET 1.78271 -1.18214 1.43049
                  }
                }
              }
              JOINT lIndex1
              {
                OFFSET 7.75947 0.938293 5.60832
                CHANNELS 3 Zrotation Xrotation Yrotation
                JOINT lIndex2
                {
                  OFFSET 2.54057 -0.884171 1.56538
                  CHANNELS 3 Zrotation Xrotation Yrotation
                  End Site
                  {
                    OFFSET 1.62519 -0.234802 1.16502
                  }
                }
              }
              JOINT lMid1
              {
                OFFSET 8.24714 1.18213 3.41376
                CHANNELS 3 Zrotation Xrotation Yrotation
                JOINT lMid2
                {
                  OFFSET 3.10165 -0.590103 1.0647
                  CHANNELS 3 Zrotation Xrotation Yrotation
                  End Site
                  {
                    OFFSET 2.48547 -0.328903 0.83742
                  }
                }
              }
              JOINT lRing1
              {
                OFFSET 8.82822 0.546677 1.51678
                CHANNELS 3 Zrotation Xrotation Yrotation
                JOINT lRing2
                {
                  OFFSET 2.60934 -0.819778 -0.0198488
                  CHANNELS 3 Zrotation Xrotation Yrotation
                  End Site
                  {
                    OFFSET 2.33842 -0.294052 0.168128
                  }
                }
              }
              JOINT lPinky1
              {
                OFFSET 8.27202 -0.0477905 -0.4584
                CHANNELS 3 Zrotation Xrotation Yrotation
                JOINT lPinky2
                {
                  OFFSET 1.82734 -0.647385 -0.700984
                  CHANNELS 3 Zrotation Xrotation Yrotation
                  End Site
                  {
                    OFFSET 1.69225 -0.51767 -0.607171
                  }
                }
              }
            }
          }
        }
      }
    }
  }
  JOINT rButtock
  {
    OFFSET -8.77824 4.35084 1.2192
    CHANNELS 3 Zrotation Xrotation Yrotation
    JOINT rThigh
    {
      OFFSET 0 -1.70687 -2.19456
      CHANNELS 3 Zrotation Xrotation Yrotation
      JOINT rShin
      {
        OFFSET 0 -36.8199 0.73152
        CHANNELS 3 Zrotation Xrotation Yrotation
        JOINT rFoot
        {
          OFFSET 0.73152 -45.1104 -5.12064
          CHANNELS 3 Zrotation Xrotation Yrotation
          End Site
          {
            OFFSET -1.1221 -3.69964 12.103
          }
        }
      }
    }
  }
  JOINT lButtock
  {
    OFFSET 8.77824 4.35084 1.2192
    CHANNELS 3 Zrotation Xrotation Yrotation
    JOINT lThigh
    {
      OFFSET 0 -1.70687 -2.19456
      CHANNELS 3 Zrotation Xrotation Yrotation
      JOINT lShin
      {
        OFFSET 0 -36.8199 0.73152
        CHANNELS 3 Zrotation Xrotation Yrotation
        JOINT lFoot
        {
          OFFSET -0.73152 -45.1104 -5.12064
          CHANNELS 3 Zrotation Xrotation Yrotation
          End Site
          {
            OFFSET 1.1221 -3.69964 12.103
          }
        }
      }
    }
  }
}
MOTION
Frames:	6
Frame Time:	0.03333
0.0 0.0 0.0 0.0 0.0 0.0 0.0 0.0 0.0 0.0 0.0 0.0 0.0 0.0 0.0 0.0 0.0 0.0 0.0 0.0 0.0 0.0 0.0 0.0 0.0 0.0 0.0 0.0 0.0 0.0 0.0 0.0 0.0 0.0 0.0 0.0 0.0 0.0 0.0 0.0 0.0 0.0 0.0 0.0 0.0 0.0 0.0 0.0 0.0 0.0 0.0 0.0 0.0 0.0 0.0 0.0 0.0 0.0 0.0 0.0 0.0 0.0 0.0 0.0 0.0 0.0 0.0 0.0 0.0 0.0 0.0 0.0 0.0 0.0 0.0 0.0 0.0 0.0 0.0 0.0 0.0 0.0 0.0 0.0 0.0 0.0 0.0 0.0 0.0 0.0 0.0 0.0 0.0 0.0 0.0 0.0 0.0 0.0 0.0 0.0 0.0 0.0 0.0 0.0 0.0 0.0 0.0 0.0 0.0 0.0 0.0 0.0 0.0 0.0 0.0 0.0 0.0 0.0 0.0 0.0 0.0 0.0 0.0 0.0 0.0 0.0 0.0 0.0 0.0 0.0 0.0 0.0
0.0249 59.992599999999996 -0.13999999999999999 -0.205359 -0.175157 -0.699356 -0.455748 3.507459 0.008928 -9.665093 -0.795448 75.882867 -10.748299 -12.679118 -60.324755 42.337006 -15.89097 56.125491 -150.943868 -7.038392 -26.700807 -53.434861 19.073888 -36.916865 -2.617314 66.647896 88.283498 -162.58913 -76.358436 -178.264809 -176.216882 56.148454 -34.760638 -77.551318 63.78042 1.421624 176.801188 -20.852639 44.198783 129.687434 81.238999 -99.929185 -93.072356 80.241437 -18.85788 -1.100974 -8.200297 -178.808244 15.864869 63.233839 -81.177102 157.09198 64.436979 -10.936706 94.836594 -1.880455 -74.659664 -65.340966 19.546452 107.281114 -125.26347 33.293684 -96.621778 -64.351787 72.619874 91.149795 103.620613 -49.149099 -155.797967 -89.605334 -85.546049 -90.788072 114.596937 87.8278 78.96698 178.919033 30.710936 -75.568676 89.437827 -13.055427 -42.9273 74.684067 24.417773 -70.593049 -42.043828 -27.576556 -61.629229 -171.612664 0.302763 -124.054967 114.197416 44.818131 -58.191951 -47.341726 -57.367931 -113.495789 130.997971 2.199323 -8.606647 36.063234 45.713214 140.562305 86.968559 12.86918 37.262899 127.591928 -27.34842 73.397389 -8.04612 -45.853948 -11.144649 1.352314 44.899299 83.516132 0.576043 8.490259 -144.923354 68.885443 -5.881266 -94.102212 45.36509 -0.329061 84.658404 -4.706703 46.170466 -0.0 2.451624 -7.564221 -1.033529 -73.792634 -4.172398 83.570158
0.47959999999999997 62.098600000000005 -1.0848 -20.8175 -73.05337 25.355207 3.158097 5.924244 151.872255 -1.206811 -1.083461 -147.444154 5.788667 6.256645 50.751136 -34.23869 -13.258575 -63.456118 -11.160899 -4.282351 41.879342 -15.526127 0.989924 -7.251914 -7.247081 34.55745 14.070042 74.359266 -3.374478 54.026435 -0.311794 33.306119 75.155279 -6.828326 28.510721 -7.295447 -7.278442 14.560581 13.74501 -122.407041 8.104856 111.032008 -21.826947 -20.044412 -24.334921 -107.960732 6.008615 116.07949 -161.236362 -7.198186 147.087118 1.846916 1.017534 10.507077 -15.303666 -0.845139 -1.844251 -154.570828 0.78279 175.492026 -12.467562 16.706974 10.213254 -26.730351 -35.160826 -28.996582 149.789441 -67.32822 -176.175395 78.343212 -29.357585 77.718861 165.527191 -34.342149 128.025236 2.914312 -12.267055 3.331808 76.934237 37.433307 -43.656682 -1.967006 -16.180134 -15.379343 154.665483 -20.660623 -107.58687 -89.725279 -49.850947 -54.03096 -20.297121 -61.950602 -0.841577 2.037352 -18.307028 -6.634817 118.49245 -61.304166 122.411743 141.637837 -4.225183 -174.964128 84.044531 71.876665 -110.957376 65.244262 -52.260994 92.278449 -10.950987 -15.25115 0.0 -14.226999 -5.027008 -1.560137 30.938215 42.089552 58.492472 -6.112497 58.004624 -73.608097 -4.427144 -14.318566 -6.02757 30.049041 -20.94171 12.284342 -21.633011 54.08836 -54.607356 151.536193 16.818717 -89.868092
0.26189999999999997 65.9359 -2.0275000000000003 -40.481745 -80.331987 41.414409 3.316618 12.164864 164.623453 -2.676095 1.737229 -157.798877 -13.898329 14.093497 -77.289322 34.456649 -2.064838 49.318983 48.324303 19.994955 42.903532 -4.182661 -0.984841 26.488104 4.240649 1.673017 -4.474954 68.759449 3.975472 25.694992 -63.241071 16.700866 136.721374 12.214407 -27.441424 -0.137325 -179.771127 -8.841587 91.500289 27.85047 -48.200543 32.552978 114.008857 -80.51197 83.562715 18.911911 79.951268 -45.168254 -16.595688 60.486242 5.415876 -55.645766 27.318468 20.462328 -129.612492 -36.487132 -153.748435 102.343081 -71.265334 54.412762 -129.748547 44.371257 -175.271639 -62.412664 83.475093 166.269162 -4.354819 1.796487 -3.013189 99.596343 -20.537122 -175.912413 171.433077 -12.628078 112.169483 12.029883 -11.718193 8.466316 89.968979 41.439918 -52.124969 -39.365831 -44.64598 -46.611986 136.951603 -36.619023 -134.601799 127.914129 1.220956 -139.601791 28.458553 60.650726 -41.770685 -164.271621 78.461269 172.198993 86.716953 59.728138 -86.940319 108.469614 26.157458 -124.360252 46.085915 -51.992988 41.068911 100.618959 -34.004855 8.612191 -6.797725 -5.23515 -0.0 -28.369384 -23.026373 -54.082286 -50.37881 41.046783 -37.89284 128.826023 -54.103111 -122.127924 2.56073 -10.183447 14.195607 18.750166 -27.356914 -88.407548 -67.605847 -0.179647 -99.013771 -74.837193 -2.450398 -174.09036
0.025099999999999997 65.2659 -3.2519 -128.647327 -82.996204 125.762499 -0.272868 20.969497 31.727826 -2.309805 -11.909037 -21.545699 7.243521 23.414758 117.236003 -23.216762 27.818642 -150.170047 161.693889 -12.621542 68.929397 -44.701034 15.030014 -35.577222 -124.694579 75.398837 137.48947 -104.780147 39.290966 76.003823 -23.247984 45.875202 -116.304785 159.029468 -43.155065 132.32319 113.93583 -46.719824 56.247196 -47.525468 -38.088434 -16.930135 -162.441336 -16.175738 134.70521 176.632318 26.511899 145.448948 68.775515 -82.789197 33.081833 93.609571 -65.215502 50.18012 33.715634 37.145154 -31.136598 145.121494 -47.07919 -179.481836 -8.632658 -45.39573 -8.317411 -56.664292 -0.608471 20.848219 14.676945 41.872067 -21.211176 -26.285182 52.350603 -57.201476 159.636415 58.791958 -44.683231 165.814995 -1.392666 -142.016508 176.458753 -18.769988 -92.050917 64.385011 -7.2443 5.799423 -2.902332 17.292471 -3.546293 178.47609 -14.891261 -104.522214 -73.469927 -78.665736 -18.64949 155.29662 9.743705 -107.331001 -153.377055 -59.60641 -156.366443 52.306401 24.259761 44.717821 138.410964 14.458368 140.066025 98.081027 -0.30103 165.778016 -1.669238 -5.110847 1.989996 -42.904275 -38.916811 124.055283 43.992413 -57.711654 -26.269094 -60.074885 79.209909 -1.54057 -37.916879 -2.742761 -30.660207 58.440597 3.793847 -180.0 47.417093 -42.131587 127.182473 97.747611 -37.423911 169.065291
-0.8401000000000001 62.3837 -5.1155 -168.449765 -71.513042 162.289955 -2.627713 26.03094 5.970137 4.165985 -17.324406 -1.681537 -21.438526 21.638695 -90.930068 26.829221 18.754643 65.992662 167.368013 -5.017138 43.189307 -14.466685 7.451287 -54.320118 4.230312 -0.120462 1.2132 57.167704 12.050683 21.753638 179.535913 -62.448032 34.72565 175.4163 -18.369536 143.227203 -170.746534 -17.049142 84.536052 24.393451 -42.739578 51.869327 -124.302881 50.809554 104.317251 -124.048093 50.217133 45.375052 4.707436 0.834194 2.451295 -1.580126 0.675039 -7.258386 -89.540881 -47.359223 -88.657 -102.690575 24.555306 162.70908 1.757709 -12.129216 -5.013534 -50.202465 -47.902199 -3.226937 155.484294 0.165698 -171.416218 -126.469084 -0.70246 -151.661317 -68.596461 24.528616 -72.235317 33.27205 41.117184 -15.096427 -89.408053 -66.936637 -43.892193 117.401086 34.042278 -123.094986 176.804085 -38.638891 -115.228048 153.163298 -36.567902 -143.715661 150.199598 20.531956 -145.643635 156.349059 -7.8785 -151.490774 -170.392372 -62.976439 -173.000193 -105.634908 26.276633 136.072347 152.690749 38.859738 143.234367 119.366798 18.647102 108.586084 94.297369 64.725222 47.25348 177.933609 2.948 0.065302 111.125872 72.327517 105.150047 23.342069 -4.625178 170.226615 4.065014 -10.764987 -4.38911 13.437786 -2.524013 0.87455 -25.621774 54.192816 119.120284 -67.133248 33.430131 -39.484709
